#!OML:ASF F:\VICON\USERDATA\INSTALL\rory3\rory3.ASF
:FULLY-SPECIFIED
:DEGREES
55
root -0.24822912551652676 18.720004299747796 23.587271677614787 4.948548607420075 6.030187066831523 -3.6817126045192134
lfemur -40.44243251780652 -3.600961125921261 -19.087778722449215
ltibia 43.15428286122996
lfoot 1.1028415111276484 -13.590856673390842
ltoes -20.05263411829415
rfemur 15.488057961133551 5.14709863269192 34.64656293612044
rtibia 28.22818539186731
rfoot 30.65496822081283 -0.778778071411141
rtoes 7.732467664450955
lowerback 11.186934331512793 2.1236466828972294 6.522252341046904
upperback -2.127177657216561 3.812737750331401 0.27601022660649566
thorax -8.476073365648771 1.5604474444592724 -4.075644981110111
lowerneck -18.56150816708514 -6.625655413205905 -2.2301017188035237
upperneck 15.868022372640091 -9.173385968585688 3.6587647360202817
head 8.305499532804223 -4.1435186605757295 0.5049272004352862
lclavicle -1.094284282703506e-15 -9.132780311864234e-16
lhumerus -74.49665581467593 -2.5971908529483 94.07250887861497
lradius 119.3268375633213
lwrist 41.236851350335584
lhand -23.26703193455922 2.7243639522251026
lfingers 7.125020000000056
lthumb 3.18442666882828 32.60384674446462
rclavicle -1.094284282703506e-15 -9.132780311864234e-16
rhumerus -36.04334491547113 17.414199542396616 -97.55716515491115
rradius 123.41531389315494
rwrist -22.688446347084323
rhand -14.5104346832312 15.891923080253523
rfingers 7.125020000000056
rthumb 11.62390381096252 33.83318544867255
56
root -0.23994630226707353 18.791399106138243 24.35813520193905 5.042242709240472 5.824835866924783 -3.6866905892487374
lfemur -38.239788997454454 -3.1526006031364693 -19.258901992448003
ltibia 34.37067901372368
lfoot 3.022728897370899 -14.39140346857739
ltoes -19.76450298061919
rfemur 16.101152134654043 6.684271317273739 35.18663298147295
rtibia 30.362265994643522
rfoot 31.653721081099096 -0.989581432928964
rtoes 10.640488686027382
lowerback 10.66868732945047 2.3503873650249023 6.406542581175772
upperback -2.1514154114741477 4.054268941938497 0.13499807665093155
thorax -8.17781521992012 1.6865437159992136 -4.1402288138519845
lowerneck -18.576340271335116 -6.738436454360468 -2.269388351759563
upperneck 16.303877033184655 -9.352428592011666 3.797690025178003
head 8.476825320876015 -4.214910746753235 0.5297860954460909
lclavicle -9.018404104286181e-16 -7.642681870040251e-16
lhumerus -75.67306550386549 -0.6040323513693768 93.06911869548044
lradius 120.47547359528551
lwrist 41.60836560403722
lhand -22.832338175082583 2.2976805257451325
lfingers 7.125020000000057
lthumb 3.6040109683903 32.16001631389444
rclavicle -9.018404104286181e-16 -7.642681870040251e-16
rhumerus -36.124631165406775 18.450479502086353 -97.83716371751623
rradius 123.04732078229792
rwrist -22.809527880782856
rhand -14.249213318256155 9.483018109595857
rfingers 7.125020000000057
rthumb 11.87549732929332 35.754816006201224
57
root -0.23427293829147916 18.795452144267795 24.953921585779746 4.864549777731289 5.527662224090003 -3.856372052112593
lfemur -36.4826573077608 -2.4641881750364396 -19.3961717629168
ltibia 28.180971753682236
lfoot 4.6489678974221516 -14.713529450213759
ltoes -19.331833994460844
rfemur 15.78167307590118 7.785421028704402 35.74791695821711
rtibia 34.831441269684845
rfoot 30.20415258348338 -2.1023072194695605
rtoes 11.740890056579213
lowerback 10.576802445018147 2.5242209083226532 6.29281668724368
upperback -2.055127135709513 4.25742055868641 0.11141955602957898
thorax -7.9939145555974385 1.7938663913018922 -4.125745903971617
lowerneck -18.68050124238591 -6.821994380454009 -2.30739190498571
upperneck 16.469895967158138 -9.47319273864585 3.8812114082574816
head 8.567291854115561 -4.2640342701901695 0.5441061033813422
lclavicle -8.622722006916547e-16 -7.336304053872387e-16
lhumerus -76.41743435611488 0.8800185275944434 92.4478179081996
lradius 120.86950608977972
lwrist 41.4844225107024
lhand -22.203156980726938 1.6164375362123486
lfingers 7.125020000000057
lthumb 4.211321563617564 31.45233541442803
rclavicle -8.622722006916547e-16 -7.336304053872387e-16
rhumerus -36.032203566816484 19.17472896014333 -98.17966034405639
rradius 121.89569418210795
rwrist -22.57871008710282
rhand -15.252282218496854 3.411261844319668
rfingers 7.125020000000057
rthumb 10.910281445892844 33.85168715728389
58
root -0.22785931465918086 18.754814908824905 25.770141794766452 4.462422274444887 5.339615291124975 -4.039117060743625
lfemur -34.767762416368484 -1.706493899470297 -19.662965052561372
ltibia 23.94354220096757
lfoot 6.003710905772843 -14.966671353831494
ltoes -18.985577198726133
rfemur 14.777625548611072 8.276259009903857 36.09712770659584
rtibia 41.61247998900672
rfoot 28.02473853426165 -3.7243107018337605
rtoes 11.646136271193052
lowerback 10.823548789181492 2.629523484764993 6.169516049147578
upperback -1.8657947886736463 4.389035733400369 0.1501722744583145
thorax -7.8899868158841695 1.8663166770511062 -4.039808901216327
lowerneck -18.793885160722226 -6.842761218716783 -2.3502330010235024
upperneck 16.45353044244979 -9.493617463899898 3.9428248627718174
head 8.592686565510581 -4.270280967551283 0.5654919269195244
lclavicle -8.1276079770600015e-16 -6.952935774502038e-16
lhumerus -76.60516284973343 1.835476013060342 92.3273622073254
lradius 121.12232467192567
lwrist 40.95971251497434
lhand -21.635217994034495 1.0104112272022316
lfingers 7.125020000000057
lthumb 4.7595590563287296 30.824181406782
rclavicle -8.1276079770600015e-16 -6.952935774502038e-16
rhumerus -35.95409188014813 19.641967820982043 -98.58338596871138
rradius 120.47917747560996
rwrist -21.961484048823056
rhand -17.073567982881524 -1.4606994282766976
rfingers 7.125020000000057
rthumb 9.15719782365136 29.107409019355874
59
root -0.2213225696432049 18.666483455872246 26.70730609324476 3.849622939265249 5.291400946552821 -4.0690915251021655
lfemur -32.768801723814 -0.9974491042555291 -20.18405749186122
ltibia 21.67910592082527
lfoot 6.696572810083218 -15.426358267043309
ltoes -18.29078700562094
rfemur 12.92553946387842 7.990505042128426 35.875314789471126
rtibia 50.37388255616741
rfoot 25.929972394896335 -5.467450232723827
rtoes 10.537341400379084
lowerback 11.345727616936344 2.62739433340003 5.885481638693924
upperback -1.6003097074311479 4.367613269894006 0.19610296727032916
thorax -7.858320199485084 1.87021455023058 -3.8322632469132407
lowerneck -18.84627561397629 -6.768426932278584 -2.401437425882043
upperneck 16.340049289363456 -9.378551743961689 4.0036211846281216
head 8.568751306756264 -4.214370601708306 0.6064357282574446
lclavicle -7.449855067026528e-16 -6.428149659813486e-16
lhumerus -76.0174316528499 2.1939472851658257 92.67143287188696
lradius 121.10041820178138
lwrist 40.02392077050773
lhand -21.437631032839946 0.7988465224411332
lfingers 7.125020000000058
lthumb 4.950376802519366 30.6088334592696
rclavicle -7.449855067026528e-16 -6.428149659813486e-16
rhumerus -36.11588312570638 19.626110341324637 -98.97166556567974
rradius 118.60168567947048
rwrist -21.036249964641957
rhand -18.88648767924819 -4.4059357210743535
rfingers 7.125020000000058
rthumb 7.411473378617686 23.57078646149225
60
root -0.20397239065476325 18.52330781210933 27.97189931495815 3.1023609518904447 5.478968795218297 -3.7943870577493977
lfemur -30.339944212375627 -0.40534343251284966 -20.879644996925872
ltibia 22.109829190638568
lfoot 6.3193616342778505 -15.956309488982118
ltoes -15.957639458203516
rfemur 10.518672530519941 6.892247950365302 34.9111470806393
rtibia 60.69285360811801
rfoot 24.435881833294367 -6.939700287542239
rtoes 9.082531222988308
lowerback 12.08801767120798 2.5282800829845584 5.371527740158287
upperback -1.2741150576065454 4.1846563407909985 0.2138136632130072
thorax -7.864450114805212 1.804909389775447 -3.445739440440945
lowerneck -18.754588981730244 -6.606249786798033 -2.4412956688949006
upperneck 16.292331431010176 -9.146198878095019 4.09621974289154
head 8.538327847230745 -4.103790567057372 0.6706666760067622
lclavicle -4.0272207673859105e-16 -3.7779939308237366e-16
lhumerus -74.51648854625202 2.1143059836224776 93.42585646870617
lradius 121.12163386423438
lwrist 39.0242537325494
lhand -21.670744287669635 1.2028873902985104
lfingers 7.125020000000059
lthumb 4.7255038203366375 31.02953061450476
rclavicle -4.0272207673859105e-16 -3.7779939308237366e-16
rhumerus -36.400551754634925 19.184404306047327 -99.15234725176495
rradius 116.62437519100962
rwrist -19.88304790506643
rhand -20.07530924095989 -5.579410468796706
rfingers 7.125020000000059
rthumb 6.265936836341078 19.142369441277477
61
root -0.18923548489345604 18.32681041553198 29.13234592138895 2.2894944612495887 5.845662355383059 -3.2783285713233603
lfemur -28.153197884342408 -0.03288651865928083 -21.705421060655677
ltibia 24.68355218567136
lfoot 4.252769348662067 -16.403609952190696
ltoes -11.650129247062079
rfemur 7.769283871988273 5.15982695428969 33.1745412686922
rtibia 71.10828323695785
rfoot 23.480002279577405 -8.047295766783586
rtoes 7.928558143661253
lowerback 12.893434101200977 2.3726298325800452 4.582721403038752
upperback -0.9463950672729455 3.878706149597948 0.15341646072274195
thorax -7.929341857741462 1.689713414538124 -2.967999002069844
lowerneck -18.60378806089168 -6.449826452791125 -2.4592472373157106
upperneck 16.275005208406828 -8.940040610923926 4.222194866680159
head 8.507857456962775 -3.999650357607839 0.7407586184279138
lclavicle -1.0334205121595715e-16 -1.459885612785462e-16
lhumerus -72.62125964339997 1.600075305329275 94.34821810033799
lradius 120.82357884967298
lwrist 38.25355625731544
lhand -22.148865122712852 1.8856048369691223
lfingers 7.125020000000059
lthumb 4.264118817808211 31.737961258883463
rclavicle -1.0334205121595715e-16 -1.459885612785462e-16
rhumerus -36.96904708950361 18.29092789235311 -99.32911644022106
rradius 114.26460786666797
rwrist -18.87230200920613
rhand -20.618635141620743 -6.056177908396602
rfingers 7.125020000000059
rthumb 5.741583378457402 16.364414397050265
